<?xml version="1.0" encoding="UTF-8"?>
<svg width="507px" height="65px" viewBox="0 0 507 65" version="1.1" xmlns="http://www.w3.org/2000/svg" xmlns:xlink="http://www.w3.org/1999/xlink">
    <!-- Generator: Sketch 54.1 (76490) - https://sketchapp.com -->
    <title>NRP DTP Logo</title>
    <desc>Created with Sketch.</desc>
    <defs>
        <linearGradient x1="49.9991822%" y1="-9.07786997e-05%" x2="49.9991822%" y2="99.9999092%" id="linearGradient-1">
            <stop stop-color="#124BA1" offset="0%"></stop>
            <stop stop-color="#011A87" offset="100%"></stop>
        </linearGradient>
        <linearGradient x1="49.9991822%" y1="-9.07786997e-05%" x2="49.9991822%" y2="99.9999092%" id="linearGradient-2">
            <stop stop-color="#2DE3E8" offset="0%"></stop>
            <stop stop-color="#0E6EB1" offset="100%"></stop>
        </linearGradient>
        <linearGradient x1="49.9952571%" y1="-0.0147033464%" x2="49.9952571%" y2="99.9898347%" id="linearGradient-3">
            <stop stop-color="#95F600" offset="0%"></stop>
            <stop stop-color="#147700" offset="100%"></stop>
        </linearGradient>
        <linearGradient x1="49.9952571%" y1="-0.0147033464%" x2="49.9952571%" y2="99.9898347%" id="linearGradient-4">
            <stop stop-color="#4DAF00" offset="0%"></stop>
            <stop stop-color="#157800" offset="100%"></stop>
        </linearGradient>
        <linearGradient x1="0.000181570586%" y1="50.0006134%" x2="99.9992737%" y2="50.0006134%" id="linearGradient-5">
            <stop stop-color="#3FDFE7" offset="0%"></stop>
            <stop stop-color="#001388" offset="100%"></stop>
        </linearGradient>
        <linearGradient x1="49.9997955%" y1="-0.000272331155%" x2="49.9997955%" y2="100.000635%" id="linearGradient-6">
            <stop stop-color="#FBD500" offset="0%"></stop>
            <stop stop-color="#BC1D02" offset="100%"></stop>
        </linearGradient>
    </defs>
    <g id="Symbols" stroke="none" stroke-width="1" fill="none" fill-rule="evenodd">
        <g id="D-header" transform="translate(-135.000000, -37.000000)" fill-rule="nonzero">
            <g id="NRP-DTP-Logo" transform="translate(135.000000, 37.000000)">
                <g id="Doctoral-Training-Partnership" transform="translate(70.000000, 32.000000)" fill="#31404A">
                    <path d="M5.78372999,4.59171429 L5.78372999,21.681 L6.77000146,21.681 C8.11058006,21.681 9.1480575,21.4264286 9.88306987,20.9179143 C10.6177642,20.4094 11.2045655,19.5221714 11.6431557,18.2571714 C12.0814279,16.9921714 12.300246,15.1642857 12.300246,12.7741429 C12.300246,10.5615714 12.0585284,8.85751429 11.5754112,7.6626 C11.091976,6.46737143 10.4860917,5.65682857 9.75775837,5.23065714 C9.02910699,4.8048 8.03329403,4.59171429 6.77000146,4.59171429 L5.78372999,4.59171429 Z M3.55271368e-15,0.133257143 L6.22740902,0.133257143 C8.926377,0.133257143 11.1209185,0.492485714 12.8110335,1.20968571 C14.5014665,1.92751429 15.8544491,3.2516 16.869663,5.18194286 C17.8851951,7.11291429 18.392802,9.72305714 18.392802,13.0123714 C18.392802,15.3494 18.084294,17.4227429 17.4675961,19.2327143 C16.8505801,21.0426857 16.0408261,22.4686 15.038016,23.5098286 C14.035524,24.5513714 12.904222,25.2500286 11.644746,25.6054857 C10.38527,25.9612571 8.81060699,26.1391429 6.92139301,26.1391429 L3.55271368e-15,26.1391429 L3.55271368e-15,0.133257143 L3.55271368e-15,0.133257143 Z" id="Fill-45"></path>
                    <path d="M31.0788421,16.5273429 C31.0788421,14.0724571 30.9093217,12.4127143 30.5702809,11.5474857 C30.2309221,10.6822571 29.639032,10.2498 28.7939745,10.2498 C27.9749971,10.2498 27.3862875,10.6605714 27.0278457,11.4805429 C26.6694039,12.3011429 26.490024,13.9835143 26.490024,16.5273429 C26.490024,18.8810286 26.64396,20.5153143 26.9508777,21.4311429 C27.2581135,22.3472857 27.8725852,22.8048857 28.7939745,22.8048857 C29.677198,22.8048857 30.2786295,22.3504286 30.5985873,21.4405714 C30.9188632,20.5313429 31.0788421,18.8932857 31.0788421,16.5273429 Z M36.6895531,16.5179143 C36.6895531,23.1986857 34.0576936,26.5392286 28.7939745,26.5392286 C23.5181696,26.5392286 20.8799491,23.1986857 20.8799491,16.5179143 C20.8799491,9.85002857 23.5181696,6.51577143 28.7939745,6.51577143 C34.0576936,6.51577143 36.6895531,9.85002857 36.6895531,16.5179143 L36.6895531,16.5179143 Z" id="Fill-46"></path>
                    <path d="M54.4074541,13.9841429 L49.3561921,14.1746 C49.2792242,12.9935143 49.0861681,12.1012571 48.7776601,11.4978286 C48.4694702,10.8947143 47.9488231,10.5926857 47.2160371,10.5926857 C45.3907511,10.5926857 44.4782671,12.4856286 44.4782671,16.2702571 C44.4782671,18.4677429 44.6999476,20.0042857 45.1436266,20.8808286 C45.5869876,21.7570571 46.2456681,22.1954857 47.1196681,22.1954857 C48.4821921,22.1954857 49.2273821,21.0078 49.3561921,18.6327429 L54.4074541,18.9564571 C53.9580502,24.0117429 51.4165167,26.5392286 46.7822176,26.5392286 C44.2791681,26.5392286 42.3626019,25.7041714 41.0344272,24.0337429 C39.7056164,22.3636286 39.0415291,19.8776286 39.0415291,16.5751143 C39.0415291,13.2983714 39.7380575,10.8023143 41.1304782,9.08788571 C42.5235349,7.37314286 44.4779491,6.51577143 46.9940386,6.51577143 C51.5383297,6.51577143 54.0092562,9.00522857 54.4074541,13.9841429" id="Fill-47"></path>
                    <path d="M58.1671172,0.990628571 L63.4499192,0.819342857 L63.4499192,6.897 L67.0359272,6.897 L67.0359272,11.1260286 L63.4499192,11.1260286 L63.4499192,18.1946286 C63.4499192,19.5026857 63.4788617,20.3506286 63.5367467,20.7378286 C63.5943137,21.1253429 63.7873697,21.4493714 64.1149607,21.7092857 C64.4425517,21.9698286 64.9921412,22.0999429 65.7634112,22.0999429 C66.1746492,22.0999429 66.6889352,22.0873714 67.3056332,22.0619143 L67.3056332,26.1391429 C66.0973632,26.4056571 64.9921412,26.5392286 63.9896492,26.5392286 C62.3443792,26.5392286 61.0849032,26.2277714 60.2109032,25.6054857 C59.3369032,24.9832 58.7774541,24.2022 58.5335102,23.2621714 C58.2892482,22.3221429 58.1671172,20.8299143 58.1671172,18.7848571 L58.1671172,11.1260286 L56.0078792,11.1260286 L56.0078792,6.897 L58.1671172,6.897 L58.1671172,0.990628571" id="Fill-48"></path>
                    <path d="M78.9506972,16.5273429 C78.9506972,14.0724571 78.7811769,12.4127143 78.441818,11.5474857 C78.1027773,10.6822571 77.5105691,10.2498 76.6658297,10.2498 C75.8465342,10.2498 75.2578246,10.6605714 74.8993828,11.4805429 C74.540941,12.3011429 74.3618792,13.9835143 74.3618792,16.5273429 C74.3618792,18.8810286 74.5154971,20.5153143 74.8227329,21.4311429 C75.1299687,22.3472857 75.7441223,22.8048857 76.6658297,22.8048857 C77.5490531,22.8048857 78.1504847,22.3504286 78.4704425,21.4405714 C78.7904003,20.5313429 78.9506972,18.8932857 78.9506972,16.5273429 Z M84.5610902,16.5179143 C84.5610902,23.1986857 81.9295488,26.5392286 76.6658297,26.5392286 C71.3897067,26.5392286 68.7514862,23.1986857 68.7514862,16.5179143 C68.7514862,9.85002857 71.3897067,6.51577143 76.6658297,6.51577143 C81.9295488,6.51577143 84.5610902,9.85002857 84.5610902,16.5179143 L84.5610902,16.5179143 Z" id="Fill-49"></path>
                    <path d="M87.7425393,6.897 L92.5234592,6.897 L92.5234592,11.5452857 C93.3847373,8.28142857 94.9205983,6.64902857 97.1313603,6.64902857 C97.4013843,6.64902857 97.7098923,6.68077143 98.0568843,6.74425714 L98.0568843,11.9834 C97.6583683,11.9328 97.3562213,11.9073429 97.1507613,11.9073429 C94.5029993,11.9073429 93.1792773,13.8886 93.1792773,17.8514286 L93.1792773,26.1391429 L87.7425393,26.1391429 L87.7425393,6.897" id="Fill-50"></path>
                    <path d="M109.451325,16.9560286 C107.870301,17.1332857 106.742498,17.4786857 106.067597,17.9909714 C105.392696,18.5038857 105.055563,19.3681714 105.055563,20.5838286 C105.055563,22.2042857 105.659539,23.0145143 106.867809,23.0145143 C107.523309,23.0145143 108.117426,22.6508857 108.651113,21.9226857 C109.184482,21.1944857 109.451325,19.8553143 109.451325,17.9058 L109.451325,16.9560286 Z M105.248301,13.0123714 L100.10067,12.5170571 C100.344614,10.5867143 101.17695,9.10045714 102.597359,8.05891429 C104.01745,7.018 105.807432,6.4966 107.966988,6.4966 C109.791638,6.4966 111.256892,6.84294286 112.362432,7.535 C113.467654,8.22768571 114.165137,9.03037143 114.454244,9.94494286 C114.743669,10.8595143 114.888063,12.276 114.888063,14.1937714 L114.888063,21.8714571 C114.888063,24.2594 114.997154,25.6818571 115.215972,26.1391429 L110.165346,26.1391429 C109.985012,25.6183714 109.895004,24.6340286 109.895004,23.1861143 C108.701683,25.4216286 106.92474,26.5392286 104.564177,26.5392286 C103.050261,26.5392286 101.818456,26.0913714 100.869078,25.1959714 C99.9197001,24.3005714 99.4451703,22.9956571 99.4451703,21.2809143 C99.4451703,19.1343429 100.163008,17.4736571 101.599956,16.2988571 C103.036903,15.1243714 105.653814,14.4222571 109.451325,14.1937714 L109.451325,13.4696571 C109.451325,12.1870571 109.319653,11.2976286 109.057898,10.8023143 C108.795507,10.3073143 108.286946,10.0593429 107.531897,10.0593429 C106.15029,10.0593429 105.389197,11.0436857 105.248301,13.0123714 L105.248301,13.0123714 Z" id="Fill-51"></path>
                    <polygon id="Fill-52" points="118.859865 26.1391429 124.296921 26.1391429 124.296921 0.133257143 118.859865 0.133257143"></polygon>
                    <polyline id="Fill-53" points="133.184814 0.133257143 149.591715 0.133257143 149.591715 5.01065714 144.212862 5.01065714 144.212862 26.1391429 138.428814 26.1391429 138.428814 5.01065714 133.184814 5.01065714 133.184814 0.133257143"></polyline>
                    <path d="M149.977509,6.897 L154.758747,6.897 L154.758747,11.5452857 C155.620025,8.28142857 157.156205,6.64902857 159.366648,6.64902857 C159.636672,6.64902857 159.94518,6.68077143 160.292491,6.74425714 L160.292491,11.9834 C159.893656,11.9328 159.591509,11.9073429 159.386049,11.9073429 C156.738287,11.9073429 155.414566,13.8886 155.414566,17.8514286 L155.414566,26.1391429 L149.977509,26.1391429 L149.977509,6.897" id="Fill-54"></path>
                    <path d="M171.686614,16.9560286 C170.10559,17.1332857 168.977786,17.4786857 168.302885,17.9909714 C167.627984,18.5038857 167.290533,19.3681714 167.290533,20.5838286 C167.290533,22.2042857 167.894509,23.0145143 169.103098,23.0145143 C169.758598,23.0145143 170.352714,22.6508857 170.886719,21.9226857 C171.41977,21.1944857 171.686614,19.8553143 171.686614,17.9058 L171.686614,16.9560286 Z M167.48359,13.0123714 L162.33564,12.5170571 C162.579902,10.5867143 163.412238,9.10045714 164.832647,8.05891429 C166.252738,7.018 168.042721,6.4966 170.202277,6.4966 C172.027245,6.4966 173.49218,6.84294286 174.598039,7.535 C175.703261,8.22768571 176.400425,9.03037143 176.68985,9.94494286 C176.978639,10.8595143 177.123352,12.276 177.123352,14.1937714 L177.123352,21.8714571 C177.123352,24.2594 177.232443,25.6818571 177.451261,26.1391429 L172.400635,26.1391429 C172.220301,25.6183714 172.129975,24.6340286 172.129975,23.1861143 C170.936971,25.4216286 169.15971,26.5392286 166.799465,26.5392286 C165.285549,26.5392286 164.054062,26.0913714 163.104366,25.1959714 C162.154988,24.3005714 161.680459,22.9956571 161.680459,21.2809143 C161.680459,19.1343429 162.398614,17.4736571 163.835244,16.2988571 C165.272191,15.1243714 167.889103,14.4222571 171.686614,14.1937714 L171.686614,13.4696571 C171.686614,12.1870571 171.555259,11.2976286 171.293186,10.8023143 C171.030795,10.3073143 170.522234,10.0593429 169.767503,10.0593429 C168.385578,10.0593429 167.624167,11.0436857 167.48359,13.0123714 L167.48359,13.0123714 Z" id="Fill-55"></path>
                    <path d="M181.095154,26.1391429 L186.531892,26.1391429 L186.531892,6.897 L181.095154,6.897 L181.095154,26.1391429 Z M181.05667,5.31582857 L186.570694,5.31582857 L186.570694,-7.10542736e-15 L181.05667,-7.10542736e-15 L181.05667,5.31582857 Z" id="Fill-56"></path>
                    <path d="M190.522777,6.897 L195.670408,6.897 L195.670408,9.52568571 C196.57017,7.51897143 198.196039,6.51577143 200.548333,6.51577143 C201.820531,6.51577143 202.871684,6.79862857 203.700521,7.36371429 C204.529358,7.9288 205.059547,8.64945714 205.291087,9.52568571 C205.522309,10.4022286 205.638079,11.7360571 205.638079,13.5268571 L205.638079,26.1391429 L200.201341,26.1391429 L200.201341,13.5268571 C200.201341,12.2313714 200.034047,11.4312 199.700095,11.1260286 C199.365825,10.8214857 198.915785,10.6690571 198.350293,10.6690571 C197.373245,10.6690571 196.730785,10.9641714 196.422277,11.5550286 C196.113769,12.1455714 195.959833,13.2474571 195.959833,14.8603714 L195.959833,26.1391429 L190.522777,26.1391429 L190.522777,6.897" id="Fill-57"></path>
                    <path d="M209.339857,26.1391429 L214.776913,26.1391429 L214.776913,6.897 L209.339857,6.897 L209.339857,26.1391429 Z M209.301373,5.31582857 L214.815397,5.31582857 L214.815397,-7.10542736e-15 L209.301373,-7.10542736e-15 L209.301373,5.31582857 Z" id="Fill-58"></path>
                    <path d="M218.767798,6.897 L223.915429,6.897 L223.915429,9.52568571 C224.815191,7.51897143 226.44106,6.51577143 228.793354,6.51577143 C230.065552,6.51577143 231.116705,6.79862857 231.945542,7.36371429 C232.774697,7.9288 233.304886,8.64945714 233.536108,9.52568571 C233.76733,10.4022286 233.8831,11.7360571 233.8831,13.5268571 L233.8831,26.1391429 L228.446362,26.1391429 L228.446362,13.5268571 C228.446362,12.2313714 228.279068,11.4312 227.945116,11.1260286 C227.610846,10.8214857 227.161124,10.6690571 226.595314,10.6690571 C225.618266,10.6690571 224.975806,10.9641714 224.667298,11.5550286 C224.359108,12.1455714 224.204854,13.2474571 224.204854,14.8603714 L224.204854,26.1391429 L218.767798,26.1391429 L218.767798,6.897" id="Fill-59"></path>
                    <path d="M246.762196,12.4978857 C246.762196,10.428 246.190025,9.39242857 245.046001,9.39242857 C244.352017,9.39242857 243.860312,9.64354286 243.571205,10.1451429 C243.282098,10.6470571 243.137386,11.4758286 243.137386,12.6314571 C243.137386,14.5746857 243.760763,15.5461429 245.007517,15.5461429 C245.636937,15.5461429 246.086977,15.3176571 246.357319,14.8603714 C246.627025,14.4030857 246.762196,13.6158 246.762196,12.4978857 Z M242.616739,25.3009429 C241.472715,25.8217143 240.900862,26.5961143 240.900862,27.6247714 C240.900862,28.9205714 242.391878,29.5683143 245.373592,29.5683143 C247.93071,29.5683143 249.209269,28.8948 249.209269,27.5487143 C249.209269,27.0537143 249.072507,26.6501714 248.795804,26.3390286 C248.519101,26.0278857 248.166066,25.8311429 247.736699,25.7481714 C247.305106,25.6661429 246.401846,25.5932286 245.0266,25.5294286 C244.217164,25.4785143 243.413453,25.4024571 242.616739,25.3009429 Z M254.16448,3.73434286 L254.16448,7.23988571 C253.754196,7.13837143 253.362995,7.08714286 252.990877,7.08714286 C251.858621,7.08714286 251.171634,7.66542857 250.926736,8.82105714 C251.890426,9.82457143 252.373861,11.1071714 252.373861,12.6694857 C252.373861,14.4096857 251.715499,15.8032286 250.405135,16.8513714 C249.094771,17.8992 247.398295,18.4231143 245.316025,18.4231143 C244.518993,18.4231143 243.677116,18.3153143 242.790394,18.0990857 C241.942156,18.5566857 241.517878,19.0837429 241.517878,19.6805714 C241.517878,20.1633143 241.755779,20.4807429 242.231263,20.6331714 C242.706747,20.7856 244.005025,20.9188571 246.125779,21.0329429 C248.080193,21.1476571 249.54004,21.3381143 250.513271,21.6046286 C251.483322,21.8714571 252.291168,22.4176857 252.939989,23.2433143 C253.58881,24.0689429 253.916401,25.1548 253.916401,26.5008857 C253.916401,30.7940286 250.745448,32.9406 244.409902,32.9406 C239.088616,32.9406 236.427814,31.4097143 236.427814,28.3488857 C236.427814,26.6596 237.488191,25.4659429 239.609263,24.7672857 C237.912469,23.98 237.064231,22.8683714 237.064231,21.4333429 C237.064231,19.7820857 238.182493,18.3725143 240.419017,17.2036857 C238.491319,16.2639714 237.526993,14.6636286 237.526993,12.4026571 C237.526993,10.4852 238.192034,9.0244 239.522435,8.02088571 C240.852518,7.018 242.629461,6.51577143 244.853263,6.51577143 C246.331239,6.51577143 247.720797,6.79517143 249.018439,7.35428571 C249.158381,5.98242857 249.505055,5.00437143 250.058461,4.42011429 C250.611867,3.83617143 251.480142,3.54388571 252.660106,3.54388571 C253.226234,3.54388571 253.728752,3.60737143 254.16448,3.73434286 L254.16448,3.73434286 Z" id="Fill-61"></path>
                    <path d="M269.39587,4.34374286 L269.39587,12.0597714 L271.189669,12.0597714 C272.770375,12.0597714 273.788133,11.6967714 274.246124,10.9714 C274.700935,10.2454 274.929931,9.30317143 274.929931,8.14471429 C274.929931,7.16414286 274.751823,6.37151429 274.398788,5.76682857 C274.045753,5.16182857 273.635469,4.77368571 273.164756,4.60177143 C272.697223,4.42985714 272.038861,4.34374286 271.189669,4.34374286 L269.39587,4.34374286 Z M263.61373,0.133257143 L271.189669,0.133257143 C273.489167,0.133257143 275.273424,0.324028571 276.539261,0.704942857 C277.805098,1.08617143 278.870564,1.94668571 279.729298,3.28648571 C280.591212,4.6266 281.023759,6.28697143 281.023759,8.26854286 C281.023759,10.1737429 280.673905,11.7486286 279.980557,12.9935143 C279.287209,14.2380857 278.326699,15.1366286 277.099028,15.6891429 C275.871357,16.2416571 273.985324,16.5179143 271.440928,16.5179143 L269.39587,16.5179143 L269.39587,26.1391429 L263.61373,26.1391429 L263.61373,0.133257143 L263.61373,0.133257143 Z" id="Fill-63"></path>
                    <path d="M292.572136,16.9560286 C290.98825,17.1332857 289.862354,17.4786857 289.18809,17.9909714 C288.513825,18.5038857 288.173512,19.3681714 288.173512,20.5838286 C288.173512,22.2042857 288.777806,23.0145143 289.986394,23.0145143 C290.641576,23.0145143 291.236328,22.6508857 291.770651,21.9226857 C292.304975,21.1944857 292.572136,19.8553143 292.572136,17.9058 L292.572136,16.9560286 Z M288.367522,13.0123714 L283.221481,12.5170571 C283.463199,10.5867143 284.296488,9.10045714 285.71817,8.05891429 C287.13667,7.018 288.927289,6.4966 291.086845,6.4966 C292.912449,6.4966 294.375477,6.84294286 295.482289,7.535 C296.585921,8.22768571 297.28563,9.03037143 297.575055,9.94494286 C297.86448,10.8595143 298.007602,12.276 298.007602,14.1937714 L298.007602,21.8714571 C298.007602,24.2594 298.115739,25.6818571 298.335193,26.1391429 L293.284567,26.1391429 C293.103279,25.6183714 293.014225,24.6340286 293.014225,23.1861143 C291.821539,25.4216286 290.043643,26.5392286 287.683715,26.5392286 C286.1698,26.5392286 284.938948,26.0913714 283.98798,25.1959714 C283.040193,24.3005714 282.563119,22.9956571 282.563119,21.2809143 C282.563119,19.1343429 283.28191,17.4736571 284.719494,16.2988571 C286.157078,15.1243714 288.774625,14.4222571 292.572136,14.1937714 L292.572136,13.4696571 C292.572136,12.1870571 292.438555,11.2976286 292.177755,10.8023143 C291.913774,10.3073143 291.404894,10.0593429 290.651117,10.0593429 C289.270782,10.0593429 288.507464,11.0436857 288.367522,13.0123714 L288.367522,13.0123714 Z" id="Fill-64"></path>
                    <path d="M301.999123,6.897 L306.779407,6.897 L306.779407,11.5452857 C307.641321,8.28142857 309.1775,6.64902857 311.387944,6.64902857 C311.658286,6.64902857 311.966794,6.68077143 312.313468,6.74425714 L312.313468,11.9834 C311.915906,11.9328 311.613759,11.9073429 311.407027,11.9073429 C308.760855,11.9073429 307.434589,13.8886 307.434589,17.8514286 L307.434589,26.1391429 L301.999123,26.1391429 L301.999123,6.897" id="Fill-65"></path>
                    <path d="M315.821554,0.990628571 L321.104356,0.819342857 L321.104356,6.897 L324.691954,6.897 L324.691954,11.1260286 L321.104356,11.1260286 L321.104356,18.1946286 C321.104356,19.5026857 321.13298,20.3506286 321.190229,20.7378286 C321.250659,21.1253429 321.441488,21.4493714 321.769079,21.7092857 C322.09667,21.9698286 322.646896,22.0999429 323.419756,22.0999429 C323.83004,22.0999429 324.34528,22.0873714 324.962296,22.0619143 L324.962296,26.1391429 C323.753708,26.4056571 322.646896,26.5392286 321.64504,26.5392286 C320.000724,26.5392286 318.741248,26.2277714 317.866612,25.6054857 C316.991976,24.9832 316.432209,24.2022 316.187311,23.2621714 C315.945593,22.3221429 315.821554,20.8299143 315.821554,18.7848571 L315.821554,11.1260286 L313.661998,11.1260286 L313.661998,6.897 L315.821554,6.897 L315.821554,0.990628571" id="Fill-66"></path>
                    <path d="M327.121852,6.897 L332.267893,6.897 L332.267893,9.52568571 C333.167973,7.51897143 334.793206,6.51577143 337.146772,6.51577143 C338.41897,6.51577143 339.468533,6.79862857 340.298643,7.36371429 C341.125571,7.9288 341.656714,8.64945714 341.88889,9.52568571 C342.121066,10.4022286 342.235564,11.7360571 342.235564,13.5268571 L342.235564,26.1391429 L336.800098,26.1391429 L336.800098,13.5268571 C336.800098,12.2313714 336.631532,11.4312 336.29758,11.1260286 C335.963628,10.8214857 335.511998,10.6690571 334.94905,10.6690571 C333.969458,10.6690571 333.326998,10.9641714 333.01849,11.5550286 C332.709982,12.1455714 332.557318,13.2474571 332.557318,14.8603714 L332.557318,26.1391429 L327.121852,26.1391429 L327.121852,6.897" id="Fill-67"></path>
                    <path d="M355.809916,14.3078571 C355.819458,14.0790571 355.828999,13.9018 355.828999,13.7745143 C355.828999,11.2976286 354.982988,10.0593429 353.290964,10.0593429 C351.627566,10.0593429 350.787915,11.4758286 350.775193,14.3078571 L355.809916,14.3078571 Z M360.936874,17.4133143 L350.737027,17.4133143 L350.737027,18.4765429 C350.737027,20.1975714 350.975564,21.3497429 351.449458,21.9321143 C351.923352,22.5138571 352.543548,22.8048857 353.313228,22.8048857 C354.963905,22.8048857 355.892609,21.7130571 356.096161,19.5281429 L360.936874,19.833 C360.07496,24.3037143 357.50194,26.5392286 353.214632,26.5392286 C350.571641,26.5392286 348.561568,25.6564 347.187595,23.8910571 C345.813621,22.1257143 345.126634,19.7632286 345.126634,16.8036 C345.126634,13.4633714 345.854967,10.9135714 347.311634,9.15451429 C348.768301,7.39545714 350.724305,6.51577143 353.176467,6.51577143 C355.38373,6.51577143 357.228417,7.29394286 358.713708,8.84965714 C360.195819,10.4056857 360.936874,13.2600286 360.936874,17.4133143 L360.936874,17.4133143 Z" id="Fill-68"></path>
                    <path d="M364.117369,6.897 L368.900833,6.897 L368.900833,11.5452857 C369.759567,8.28142857 371.295746,6.64902857 373.50619,6.64902857 C373.776532,6.64902857 374.08504,6.68077143 374.431714,6.74425714 L374.431714,11.9834 C374.034152,11.9328 373.732005,11.9073429 373.525273,11.9073429 C370.879101,11.9073429 369.556015,13.8886 369.556015,17.8514286 L369.556015,26.1391429 L364.117369,26.1391429 L364.117369,6.897" id="Fill-69"></path>
                    <path d="M389.624938,11.5264286 L385.751095,12.6694857 C385.235855,10.9296 384.284887,10.0593429 382.895011,10.0593429 C381.765935,10.0593429 381.199807,10.6184571 381.199807,11.7360571 C381.199807,12.3712286 381.4129,12.8539714 381.835906,13.1836571 C382.258912,13.5142857 383.133548,13.9077714 384.456634,14.3653714 C385.948286,14.8858286 387.042376,15.3434286 387.735724,15.7369143 C388.429072,16.1307143 389.014283,16.7244 389.491357,17.5182857 C389.965251,18.3118571 390.203788,19.2232857 390.203788,20.2522571 C390.203788,22.0301714 389.554967,23.5224 388.257325,24.7292571 C386.956503,25.9361143 385.146801,26.5392286 382.818679,26.5392286 C378.435957,26.5392286 376.006059,24.6277429 375.532165,20.8044571 L379.851277,20.1186857 C380.210673,22.0367714 381.231612,22.9956571 382.917274,22.9956571 C384.354858,22.9956571 385.07365,22.3988286 385.07365,21.2045429 C385.07365,20.5696857 384.863737,20.0869429 384.437551,19.7566286 C384.014545,19.4266286 383.190797,19.0708571 381.969487,18.6899429 C379.733599,17.9787143 378.19742,17.1213429 377.36413,16.1178286 C376.52766,15.1146286 376.111015,13.9527143 376.111015,12.6314571 C376.111015,10.7771714 376.769378,9.29091429 378.086103,8.173 C379.402828,7.05571429 381.053504,6.4966 383.031772,6.4966 C386.48897,6.4966 388.686692,8.173 389.624938,11.5264286" id="Fill-70"></path>
                    <path d="M392.923111,0.133257143 L398.358577,0.133257143 L398.358577,8.93545714 C399.334989,7.30965714 400.928417,6.4966 403.142041,6.4966 C404.465127,6.4966 405.50833,6.80145714 406.274829,7.41148571 C407.038148,8.02088571 407.524763,8.79245714 407.728315,9.72588571 C407.935047,10.6596286 408.036823,12.0154571 408.036823,13.7933714 L408.036823,26.1391429 L402.601357,26.1391429 L402.601357,13.7782857 C402.601357,12.5195714 402.480499,11.6832571 402.245142,11.2702857 C402.006605,10.857 401.513628,10.6498857 400.769392,10.6498857 C400.037878,10.6498857 399.452667,10.8475714 399.013759,11.2416857 C398.578031,11.6358 398.358577,12.5324571 398.358577,13.9313429 L398.358577,26.1391429 L392.923111,26.1391429 L392.923111,0.133257143" id="Fill-71"></path>
                    <path d="M411.738919,26.1391429 L417.177566,26.1391429 L417.177566,6.897 L411.738919,6.897 L411.738919,26.1391429 Z M411.700753,5.31582857 L417.215731,5.31582857 L417.215731,-7.10542736e-15 L411.700753,-7.10542736e-15 L411.700753,5.31582857 Z" id="Fill-72"></path>
                    <path d="M426.505957,18.2584286 C426.505957,20.097 426.658621,21.2925429 426.957587,21.8441143 C427.259734,22.396 427.870389,22.6716286 428.792733,22.6716286 C429.61012,22.6716286 430.220775,22.3039143 430.615156,21.5684857 C431.012718,20.8327429 431.21309,19.0510571 431.21309,16.2228 C431.21309,13.8640857 431.038162,12.2662571 430.694669,11.4293143 C430.347995,10.5920571 429.765964,10.1737429 428.945397,10.1737429 C428.267951,10.1737429 427.692282,10.4371143 427.218388,10.9632286 C426.744494,11.4893429 426.505957,12.7103429 426.505957,14.6249714 L426.505957,18.2584286 Z M421.165906,6.897 L426.178366,6.897 L426.178366,9.77365714 C427.243832,7.69057143 428.719582,6.64902857 430.605615,6.64902857 C432.389873,6.64902857 433.871983,7.43348571 435.051947,9.00177143 C436.23191,10.5706857 436.823483,12.9680571 436.823483,16.1938857 C436.823483,19.5724571 436.244632,22.1191143 435.090113,23.8338571 C433.935593,25.5482857 432.313541,26.4056571 430.220775,26.4056571 C428.719582,26.4056571 427.482369,25.8405714 426.505957,24.7100857 L426.505957,32.6546 L421.165906,32.6546 L421.165906,6.897 L421.165906,6.897 Z" id="Fill-73"></path>
                </g>
                <g id="Norwich-Research-Park" transform="translate(70.000000, 0.000000)" fill="#31404A">
                    <path d="M10.2107937,19.5272791 L10.2107937,10.0022442 C10.2107937,7.9960814 8.7952381,6.53148837 6.18666667,6.53148837 C3.67365079,6.53148837 2.02952381,7.9960814 2.02952381,10.0022442 L2.02952381,19.5272791 L0,19.5272791 L0,5.0982907 L1.8368254,5.0982907 L1.90190476,6.84795349 C2.67492063,5.73655814 4.09333333,4.77962791 6.66698413,4.77962791 C9.85650794,4.77962791 12.2384127,6.6595814 12.2384127,9.81293023 L12.2384127,19.5272791 L10.2107937,19.5272791" id="Fill-25"></path>
                    <path d="M22.4022222,6.56319767 C19.2473016,6.56319767 16.7650794,8.9545814 16.7650794,12.3298953 C16.7650794,15.7064651 19.2473016,18.0601744 22.4022222,18.0601744 C25.4942857,18.0601744 28.0085714,15.7064651 28.0085714,12.3298953 C28.0085714,8.9545814 25.4942857,6.56319767 22.4022222,6.56319767 M22.4022222,19.8434302 C18.0542857,19.8434302 14.7053968,16.7236744 14.7053968,12.3298953 C14.7053968,7.93234884 18.0542857,4.77868605 22.4022222,4.77868605 C26.7514286,4.77868605 30.0685714,7.93234884 30.0685714,12.3298953 C30.0685714,16.7236744 26.7514286,19.8434302 22.4022222,19.8434302" id="Fill-26"></path>
                    <path d="M39.5669841,6.62787209 C36.7955556,6.62787209 34.4120635,8.5360814 34.4120635,12.453907 L34.4120635,19.5282209 L32.384127,19.5282209 L32.384127,5.09766279 L34.3174603,5.09766279 L34.4120635,7.86924419 C35.0247619,6.11769767 36.8234921,4.91651163 39.4015873,5.10048837 L39.9793651,6.63948837 C39.867619,6.63101163 39.6612698,6.62787209 39.5669841,6.62787209" id="Fill-27"></path>
                    <path d="M56.1977778,19.5495698 L55.5504762,19.8136047 L52.6190476,11.9449884 C52.1374603,10.6392558 51.6857143,9.33352326 51.2679365,7.93234884 L51.2038095,7.93234884 C50.7536508,9.36711628 50.3028571,10.6392558 49.852381,11.8831395 L46.9212698,19.8136047 L46.2450794,19.8136047 L40.7996825,5.0982907 L42.7663492,5.0982907 L45.4073016,12.2959884 C45.8590476,13.5386163 46.2768254,14.7803023 46.5961905,15.8945233 L46.6628571,15.8945233 C46.9850794,14.7803023 47.4352381,13.4422326 47.8533333,12.3283256 L50.4968254,5.0982907 L52.0412698,5.0982907 L54.6822222,12.2959884 C55.0990476,13.4102093 55.5212698,14.6512674 55.8726984,15.8945233 L55.9380952,15.8945233 C56.324127,14.6512674 56.7419048,13.4767674 57.1631746,12.3283256 L59.7688889,5.0982907 L61.6387302,4.83205814 L56.1977778,19.5495698" id="Fill-28"></path>
                    <polygon id="Fill-29" points="63.8177778 19.5266512 65.8793651 19.5266512 65.8793651 5.09766279 63.8177778 5.09766279"></polygon>
                    <path d="M66.1374603,1.27590698 C66.1374603,1.99015116 65.5714286,2.55212791 64.8485714,2.55212791 C64.1212698,2.55212791 63.5580952,1.99015116 63.5580952,1.27590698 C63.5580952,0.588348837 64.1212698,8.8817842e-16 64.8485714,8.8817842e-16 C65.5714286,8.8817842e-16 66.1374603,0.588348837 66.1374603,1.27590698" id="Fill-44"></path>
                    <path d="M80.471746,7.6774186 C79.3438095,6.94527907 77.8952381,6.56319767 76.4130159,6.56319767 C73.1304762,6.56319767 70.5520635,8.91847674 70.5520635,12.3289535 C70.5520635,15.7064651 73.1580952,18.0608023 76.4780952,18.0608023 C77.992381,18.0608023 79.28,17.7744767 80.7606349,17.0087442 L80.2450794,19.0494419 C79.2479365,19.5885 77.7974603,19.8424884 76.3155556,19.8424884 C72.1606349,19.8424884 68.4907937,16.915814 68.4907937,12.3289535 C68.4907937,7.74083721 72.0984127,4.78025581 76.3155556,4.78025581 C78.1838095,4.78025581 79.7631746,5.2562093 80.8914286,5.89447674 L80.471746,7.6774186" id="Fill-30"></path>
                    <path d="M93.2279365,19.5272791 L93.2279365,10.0022442 C93.2279365,7.9960814 91.8095238,6.53148837 89.1993651,6.53148837 C86.6863492,6.53148837 85.0460317,7.9960814 85.0460317,10.0022442 L85.0460317,19.5272791 L83.0177778,19.5272791 L83.0177778,0 L85.0460317,1.30510465 L85.0460317,6.72143023 C85.7879365,5.70422093 87.2047619,4.77962791 89.6815873,4.77962791 C92.8720635,4.77962791 95.255873,6.6595814 95.255873,9.81293023 L95.255873,19.5272791 L93.2279365,19.5272791" id="Fill-31"></path>
                    <path d="M112.127619,6.62912791 C109.360635,6.62912791 106.975556,8.53953488 106.975556,12.453907 L106.975556,19.5282209 L104.947302,19.5282209 L104.947302,5.10048837 L106.88127,5.10048837 L106.975556,7.87206977 C107.588254,6.11769767 109.388254,4.91651163 111.965079,5.10205814 L112.545714,6.64294186 C112.432381,6.63101163 112.226349,6.62912791 112.127619,6.62912791" id="Fill-32"></path>
                    <path d="M119.577778,6.53148837 C117.191111,6.53148837 115.098095,8.57030233 114.714603,10.6731628 L123.538095,10.6731628 C123.572698,10.5450698 123.572698,10.4172907 123.572698,10.2593721 C123.572698,8.57030233 122.216825,6.53148837 119.577778,6.53148837 M125.537143,11.151 L124.310476,12.3283256 L114.552063,12.3283256 C114.360317,15.227686 116.775873,18.0617442 120.348889,18.0617442 C121.540317,18.0617442 122.733651,17.9663023 123.699365,17.7443372 L121.637778,19.7492442 C121.187619,19.8136047 120.672698,19.8434302 120.122222,19.8434302 C115.937143,19.8434302 112.426667,16.7560116 112.426667,12.3283256 C112.426667,7.67804651 116.002222,4.77962791 119.480317,4.77962791 C123.471111,4.77962791 125.600952,7.51824419 125.600952,10.1655 C125.600952,10.5130465 125.600952,10.8624767 125.537143,11.151" id="Fill-33"></path>
                    <path d="M132.045079,6.46712791 C130.59619,6.46712791 129.565397,7.29502326 129.565397,8.53890698 C129.565397,9.81293023 130.49873,10.5130465 132.110159,11.0863256 C134.912381,12.0727674 136.552698,13.3785 136.552698,15.7705116 C136.552698,18.1549884 134.652381,19.8424884 131.56127,19.8424884 C129.790476,19.8424884 128.340317,19.3351395 127.472063,18.6667326 L126.923492,16.3425349 C128.116825,17.4241047 129.820952,18.1254767 131.593333,18.1254767 C133.236825,18.1254767 134.523175,17.2639884 134.523175,15.862814 C134.523175,14.4942907 133.463175,13.6663953 131.817143,13.0937442 C129.113968,12.1371279 127.569524,10.8631047 127.569524,8.60201163 C127.569524,6.34060465 129.468254,4.77962791 132.078095,4.77962791 C132.301905,4.77962791 132.496508,4.77962791 132.721587,4.81196512 L132.721587,6.49977907 C132.496508,6.46712791 132.271746,6.46712791 132.045079,6.46712791" id="Fill-34"></path>
                    <path d="M144.988254,6.53148837 C142.604762,6.53148837 140.511429,8.57030233 140.125397,10.6731628 L148.950159,10.6731628 C148.981905,10.5450698 148.981905,10.4172907 148.981905,10.2593721 C148.981905,8.57030233 147.630476,6.53148837 144.988254,6.53148837 M150.946349,11.151 L149.72381,12.3283256 L139.965714,12.3283256 C139.770794,15.227686 142.185079,18.0617442 145.760635,18.0617442 C146.952698,18.0617442 148.147302,17.9663023 149.108254,17.7443372 L147.048571,19.7492442 C146.596825,19.8136047 146.081587,19.8434302 145.537143,19.8434302 C141.348889,19.8434302 137.83873,16.7560116 137.83873,12.3283256 C137.83873,7.67804651 141.414286,4.77962791 144.889841,4.77962791 C148.886349,4.77962791 151.010159,7.51824419 151.010159,10.1655 C151.010159,10.5130465 151.010159,10.8624767 150.946349,11.151" id="Fill-35"></path>
                    <path d="M160.467937,12.4545349 L156.892381,12.7735116 C155.025397,12.9348837 153.865714,14.0481628 153.865714,15.6110233 C153.865714,17.0432791 155.087619,18.1264186 156.635238,18.1264186 C158.374603,18.1264186 160.467937,16.6602558 160.467937,14.397907 L160.467937,12.4545349 Z M162.67873,19.8434302 C161.681587,19.6566279 160.68254,18.7615465 160.491111,17.6466977 C159.71873,18.9847674 158.042222,19.8434302 156.239048,19.8434302 C153.499683,19.8434302 151.568889,17.9663023 151.568889,15.6110233 C151.568889,12.7735116 153.856825,11.3704535 156.239048,11.1503721 L160.135556,10.7670349 L160.135556,9.39945349 C160.135556,7.64727907 158.878413,6.53117442 156.689206,6.53117442 C156.400317,6.53117442 156.111429,6.56319767 155.820952,6.59302326 L156.56127,4.81102326 C156.75746,4.81102326 156.979683,4.77868605 157.075238,4.77868605 C160.039683,4.87412791 162.196825,6.59302326 162.196825,9.58751163 L162.196825,16.1824186 C162.196825,17.6143605 163.066667,18.3791512 164.001587,18.5389535 L162.67873,19.8434302 L162.67873,19.8434302 Z" id="Fill-36"></path>
                    <path d="M173.380635,6.62787209 C170.612381,6.62787209 168.228889,8.53890698 168.228889,12.453907 L168.228889,19.5282209 L166.200635,19.5282209 L166.200635,5.09766279 L168.131429,5.09766279 L168.228889,7.87206977 C168.84,6.11769767 170.708254,4.90677907 173.286667,4.90677907 L173.707619,6.62787209 L173.380635,6.62787209" id="Fill-37"></path>
                    <path d="M185.418413,7.6774186 C184.290476,6.9437093 182.841905,6.56319767 181.359365,6.56319767 C178.075556,6.56319767 175.500317,8.91847674 175.500317,12.3289535 C175.500317,15.7064651 178.107619,18.0623721 181.423175,18.0623721 C182.93746,18.0623721 184.229524,17.7744767 185.707302,17.01 L185.194921,19.0494419 C184.191746,19.5885 182.742857,19.8424884 181.265397,19.8424884 C177.107619,19.8424884 173.437778,16.915814 173.437778,12.3289535 C173.437778,7.74083721 177.045079,4.78025581 181.265397,4.78025581 C183.132063,4.78025581 184.709841,5.2562093 185.838095,5.89290698 L185.418413,7.6774186" id="Fill-38"></path>
                    <path d="M198.173333,19.5272791 L198.173333,10.0041279 C198.173333,7.99765116 196.75619,6.53148837 194.148889,6.53148837 C191.63619,6.53148837 189.991429,7.99765116 189.991429,10.0041279 L189.991429,19.5272791 L187.963175,19.5272791 L187.963175,0 L189.991429,1.30510465 L189.991429,6.72425581 C190.731746,5.70422093 192.150159,4.77962791 194.629524,4.77962791 C197.821905,4.77962791 200.200952,6.6595814 200.200952,9.81293023 L200.200952,19.5272791 L198.173333,19.5272791" id="Fill-39"></path>
                    <path d="M246.374286,6.62912791 C243.605714,6.62912791 241.221905,8.53953488 241.221905,12.4551628 L241.221905,19.5282209 L239.193968,19.5282209 L239.193968,5.10048837 L241.123492,5.10048837 L241.221905,7.87206977 C241.833016,6.11895349 243.634603,4.91651163 246.210159,5.10205814 L246.790794,6.64294186 C246.674603,6.63226744 246.471429,6.62912791 246.374286,6.62912791" id="Fill-40"></path>
                    <path d="M216.036508,6.56853488 C214.36127,6.56853488 212.944127,7.17195349 212.009206,8.12762791 L212.009206,16.5384419 C212.880317,17.3955349 214.394286,18.0661395 216.036508,18.0661395 C219.187937,18.0661395 221.64,15.6769535 221.64,12.3032093 C221.64,8.92444186 219.187937,6.56853488 216.036508,6.56853488 M216.036508,19.8475116 C214.394286,19.8475116 212.880317,19.3071977 212.009206,18.6686163 L212.009206,25.5825 L209.982857,26.885093 L209.982857,5.10394186 L211.782857,5.10394186 L211.81619,6.31360465 C212.842857,5.29513953 214.455556,4.7830814 216.361587,4.7830814 C219.964762,4.7830814 223.7,7.587 223.7,12.3032093 C223.7,16.6954186 220.385397,19.8475116 216.036508,19.8475116" id="Fill-41"></path>
                    <path d="M233.522222,12.4589302 L229.946667,12.7763372 C228.079683,12.9386512 226.92127,14.0525581 226.92127,15.6138488 C226.92127,17.0486163 228.147937,18.1292442 229.692698,18.1292442 C231.431746,18.1292442 233.522222,16.6646512 233.522222,14.4023023 L233.522222,12.4589302 Z M236.066984,19.8475116 C235.069524,19.6594535 234.071111,18.7671977 233.879365,17.651093 C233.105397,18.9904186 231.431746,19.8475116 229.628889,19.8475116 C226.887619,19.8475116 224.96,17.9703837 224.96,15.6138488 C224.96,12.7763372 227.246667,11.3751628 229.628889,11.1516279 L233.522222,10.7698605 L233.522222,9.40384884 C233.522222,7.65167442 232.267937,6.5380814 230.07873,6.5380814 C229.786984,6.5380814 229.498095,6.56853488 229.210794,6.60024419 L229.946667,4.81667442 C230.145397,4.81667442 230.369206,4.7830814 230.464762,4.7830814 C233.429206,4.88009302 235.585079,6.60024419 235.585079,9.59316279 L235.585079,16.1858721 C235.585079,17.6190698 236.455873,18.3832326 237.391111,18.5433488 L236.066984,19.8475116 L236.066984,19.8475116 Z" id="Fill-42"></path>
                    <polyline id="Fill-43" points="257.297143 19.5310465 250.370159 12.5242326 250.370159 19.5310465 248.344762 19.5310465 248.344762 0 250.370159 1.31326744 250.370159 11.9817209 257.135238 5.10394186 259.586032 5.10394186 252.687619 12.1726047 259.935238 19.5310465 257.297143 19.5310465"></polyline>
                </g>
                <g id="Icon" transform="translate(0.000000, 4.000000)">
                    <path d="M39.4502601,46.9949419 C39.4502601,51.3098837 42.9324277,54.8075 47.2268786,54.8075 C51.5206936,54.8075 55,51.3098837 55,46.9949419 C55,42.6761628 51.5206936,39.1740698 47.2268786,39.1740698 C42.9324277,39.1740698 39.4502601,42.6761628 39.4502601,46.9949419" id="Dot-BR" fill="url(#linearGradient-1)"></path>
                    <path d="M39.4502601,27.3976744 C39.4502601,31.7142151 42.9311561,35.217907 47.2240173,35.217907 C51.5222832,35.217907 55,31.7142151 55,27.3976744 C55,23.0801744 51.5222832,19.5825581 47.2240173,19.5825581 C42.9311561,19.5825581 39.4502601,23.0801744 39.4502601,27.3976744" id="Dot-CL" fill="url(#linearGradient-2)"></path>
                    <path d="M19.9812139,27.3976744 C19.9812139,30.0386337 21.2913584,32.3611047 23.2783526,33.7744767 L23.2595954,33.7744767 C23.2595954,33.7744767 25.0323121,35.2888953 25.0323121,37.1959884 C25.0323121,39.1037209 23.2595954,40.6114244 23.2595954,40.6114244 L23.2812139,40.6114244 C21.2913584,42.029593 19.9812139,44.3517442 19.9812139,46.9866279 C19.9812139,51.305407 23.461474,54.8062209 27.7584682,54.8062209 C32.0468786,54.8062209 35.526185,51.305407 35.526185,46.9866279 C35.526185,44.3517442 34.2233526,42.029593 32.2315896,40.6114244 L32.2506647,40.6114244 C32.2506647,40.6114244 30.4849422,39.1037209 30.4849422,37.1959884 C30.4849422,35.2888953 32.2506647,33.7744767 32.2506647,33.7744767 L32.2331792,33.7744767 C34.2233526,32.3611047 35.526185,30.0386337 35.526185,27.3976744 C35.526185,23.0833721 32.0468786,19.5825581 27.7559249,19.5825581 C23.461474,19.5825581 19.9812139,23.0833721 19.9812139,27.3976744" id="Double-BC" fill="url(#linearGradient-3)"></path>
                    <path d="M0,46.9949419 C0,51.3156395 3.47771676,54.8142151 7.76930636,54.8142151 C12.0637572,54.8142151 15.5462428,51.3156395 15.5462428,46.9949419 C15.5462428,42.6761628 12.0637572,39.1724709 7.76930636,39.1724709 C3.47771676,39.1724709 0,42.6761628 0,46.9949419" id="Dot-BL" fill="url(#linearGradient-4)"></path>
                    <path d="M40.8824855,3.3156686 L40.8824855,3.29616279 C40.8824855,3.29616279 39.3882659,5.0718314 37.4906069,5.0718314 C35.5913584,5.0718314 34.0895087,3.29616279 34.0895087,3.29616279 L34.0895087,3.31215116 C32.6823988,1.31040698 30.3739884,-3.55271368e-15 27.7505202,-3.55271368e-15 C23.4570231,-3.55271368e-15 19.9812139,3.50305233 19.9812139,7.81799419 C19.9812139,12.1374128 23.4570231,15.6388663 27.7505202,15.6388663 C30.3739884,15.6388663 32.6823988,14.319186 34.0895087,12.3174419 L34.0895087,12.3398256 C34.0895087,12.3398256 35.5913584,10.5552035 37.4906069,10.5552035 C39.3882659,10.5552035 40.8824855,12.3398256 40.8824855,12.3398256 L40.8824855,12.3174419 C42.2937283,14.319186 44.6015029,15.6388663 47.2268786,15.6388663 C51.5206936,15.6388663 55,12.1374128 55,7.81511628 C55,3.50305233 51.5206936,-3.55271368e-15 47.2268786,-3.55271368e-15 C44.6015029,-3.55271368e-15 42.2937283,1.31040698 40.8824855,3.3156686" id="Double-TL" fill="url(#linearGradient-5)"></path>
                    <path d="M0.846936416,7.82534884 C0.846936416,10.4653488 2.15104046,12.7830233 4.13676301,14.2031105 L4.12023121,14.2031105 C4.12023121,14.2031105 5.89008671,15.7076163 5.89008671,17.6195058 C5.89008671,19.5253198 4.12023121,21.0352616 4.12023121,21.0352616 L4.14121387,21.0352616 C2.15104046,22.4502326 0.846936416,24.7736628 0.846936416,27.4123837 C0.846936416,31.7273256 4.32306358,35.231657 8.61719653,35.231657 C12.9068786,35.231657 16.3903179,31.7273256 16.3903179,27.4123837 C16.3903179,24.7736628 15.0849422,22.4502326 13.0960405,21.0352616 L13.1119364,21.0352616 C13.1119364,21.0352616 11.3462139,19.5253198 11.3462139,17.6195058 C11.3462139,15.7076163 13.1119364,14.2031105 13.1119364,14.2031105 L13.0960405,14.2031105 C15.0849422,12.7830233 16.3903179,10.4653488 16.3903179,7.82534884 C16.3903179,3.50465116 12.9068786,0.0060755814 8.61719653,0.0060755814 C4.32306358,0.0060755814 0.846936416,3.50465116 0.846936416,7.82534884" id="Double-TR" fill="url(#linearGradient-6)"></path>
                </g>
            </g>
        </g>
    </g>
</svg>